HIERARCHY
ROOT joint_Root
{
	OFFSET 0.0 0.0 0.0
	CHANNELS 6 Xposition Yposition Zposition Zrotation Xrotation Yrotation 
	JOINT Hips
	{
		OFFSET -17.1583 93.1646 452.98
		CHANNELS 6 Xposition Yposition Zposition Zrotation Xrotation Yrotation 
		JOINT Spine
		{
			OFFSET 15.7357 0.0 0.0
			CHANNELS 6 Xposition Yposition Zposition Zrotation Xrotation Yrotation 
			JOINT Chest
			{
				OFFSET 8.98455 -0.406207 0.0
				CHANNELS 6 Xposition Yposition Zposition Zrotation Xrotation Yrotation 
				JOINT Neck
				{
					OFFSET 16.3773 0.0 0.0
					CHANNELS 6 Xposition Yposition Zposition Zrotation Xrotation Yrotation 
					JOINT Head
					{
						OFFSET 6.45672 0.0 0.0
						CHANNELS 6 Xposition Yposition Zposition Zrotation Xrotation Yrotation 
						End Site
						{
							OFFSET 0.0 0.0 0.0
						}
					}
				}
				JOINT Shoulder_L
				{
					OFFSET 12.9942 -0.242716 4.98039
					CHANNELS 6 Xposition Yposition Zposition Zrotation Xrotation Yrotation 
					JOINT UpperArm_L
					{
						OFFSET 5.34809 0.0 0.0
						CHANNELS 6 Xposition Yposition Zposition Zrotation Xrotation Yrotation 
						JOINT LowerArm_L
						{
							OFFSET 24.3286 1.87007e-05 0.0
							CHANNELS 6 Xposition Yposition Zposition Zrotation Xrotation Yrotation 
							JOINT Hand_L
							{
								OFFSET 22.2916 0.0 0.0
								CHANNELS 6 Xposition Yposition Zposition Zrotation Xrotation Yrotation 
								End Site
								{
									OFFSET 0.0 0.0 0.0
								}
							}
						}
					}
				}
				JOINT Shoulder_R
				{
					OFFSET 12.9945 -0.242716 -4.98039
					CHANNELS 6 Xposition Yposition Zposition Zrotation Xrotation Yrotation 
					JOINT UpperArm_R
					{
						OFFSET -5.34813 0.0 0.0
						CHANNELS 6 Xposition Yposition Zposition Zrotation Xrotation Yrotation 
						JOINT LowerArm_R
						{
							OFFSET -24.3289 0.000322201 0.0
							CHANNELS 6 Xposition Yposition Zposition Zrotation Xrotation Yrotation 
							JOINT Hand_R
							{
								OFFSET -22.2915 -0.000108084 0.0
								CHANNELS 6 Xposition Yposition Zposition Zrotation Xrotation Yrotation 
								End Site
								{
									OFFSET 0.0 0.0 0.0
								}
							}
						}
					}
				}
			}
		}
		JOINT UpperLeg_L
		{
			OFFSET -2.19248 -6.46944 0.0
			CHANNELS 6 Xposition Yposition Zposition Zrotation Xrotation Yrotation 
			JOINT LowerLeg_L
			{
				OFFSET 39.0811 0.0 -1.23785e-05
				CHANNELS 6 Xposition Yposition Zposition Zrotation Xrotation Yrotation 
				JOINT Foot_L
				{
					OFFSET 40.9854 0.0 -1.26872e-05
					CHANNELS 6 Xposition Yposition Zposition Zrotation Xrotation Yrotation 
					JOINT Toes_L
					{
						OFFSET 11.7543 0.0 0.0
						CHANNELS 6 Xposition Yposition Zposition Zrotation Xrotation Yrotation 
						End Site
						{
							OFFSET 0.0 0.0 0.0
						}
					}
				}
			}
		}
		JOINT UpperLeg_R
		{
			OFFSET -2.19251 6.46944 0.0
			CHANNELS 6 Xposition Yposition Zposition Zrotation Xrotation Yrotation 
			JOINT LowerLeg_R
			{
				OFFSET -39.0811 -0.00228153 -0.0401928
				CHANNELS 6 Xposition Yposition Zposition Zrotation Xrotation Yrotation 
				JOINT Foot_R
				{
					OFFSET -40.9854 0.0 0.0
					CHANNELS 6 Xposition Yposition Zposition Zrotation Xrotation Yrotation 
					JOINT Toes_R
					{
						OFFSET -11.7543 0.0 0.0
						CHANNELS 6 Xposition Yposition Zposition Zrotation Xrotation Yrotation 
						End Site
						{
							OFFSET 0.0 0.0 0.0
						}
					}
				}
			}
		}
	}
}
MOTION
Frames:	5
Frame Time:	0.0333333
0.000000 0.000000 0.000000 0.000000 0.000000 -0.000000 -2.819080 92.475000 -0.096124 86.906000 4.119870 2.179870 15.735700 0.000005 -0.000001 87.389000 86.349400 -85.954100 8.984550 -0.406207 -0.000000 -0.465364 -0.435568 2.866660 16.377300 -0.000001 -0.000001 5.091100 1.740580 -2.572320 6.456720 -0.000001 -0.000000 -6.474710 0.559680 -1.814920 12.994200 -0.242716 4.980390 -93.466800 9.902920 -70.594800 5.348090 -0.000007 -0.000001 -72.835800 14.525500 -2.460400 24.328600 0.000019 0.000005 13.484300 28.109200 -26.973300 22.291600 -0.000001 0.000005 -7.721700 5.025000 6.784930 12.994500 -0.242716 -4.980390 87.370100 7.400000 -70.372500 -5.348130 -0.000001 -0.000004 -70.069700 29.867700 -2.884360 -24.328900 0.000322 -0.000009 2.340140 6.497400 -19.864300 -22.291500 -0.000108 -0.000004 -6.273220 5.290030 0.349844 -2.192480 -6.469440 -0.000000 -176.211000 3.894400 -3.481130 39.081100 -0.000007 -0.000012 0.255979 -0.595925 23.246400 40.985400 -0.000006 -0.000013 0.722671 5.171740 -73.317400 11.754300 -0.000000 0.000003 -0.000553 0.176460 -9.419150 -2.192510 6.469440 -0.000001 -173.830000 14.462600 -177.034000 -39.081100 -0.002282 -0.040193 0.047004 -0.188114 13.069500 -40.985400 0.000008 0.000006 1.776240 3.058240 -69.824500 -11.754300 -0.000006 -0.000006 -0.009125 0.264644 -5.823350
0.000000 0.000000 0.000000 0.000000 0.000000 -0.000000 -2.850560 92.511100 -0.240360 86.926200 4.116150 2.164190 15.735700 0.000005 -0.000001 86.975000 86.262900 -85.553000 8.984550 -0.406207 -0.000000 -0.294443 -0.494333 2.841060 16.377300 -0.000001 -0.000001 4.816660 1.675880 -2.433170 6.456720 -0.000001 -0.000000 -6.784950 0.533823 -1.610200 12.994200 -0.242716 4.980390 -93.541700 10.082300 -70.529200 5.348090 -0.000007 -0.000001 -73.124200 8.297720 -2.710960 24.328600 0.000019 0.000005 13.314600 26.280200 -28.125100 22.291600 -0.000001 0.000005 -9.663230 4.929790 8.779900 12.994500 -0.242716 -4.980390 87.346300 7.385860 -70.173100 -5.348130 -0.000001 -0.000004 -69.217300 28.047100 -3.561250 -24.328900 0.000322 -0.000009 3.192790 8.273470 -21.194900 -22.291500 -0.000108 -0.000004 -8.252550 5.289680 0.361000 -2.192480 -6.469440 -0.000000 -176.172000 3.701440 -3.553450 39.081100 -0.000007 -0.000012 0.245855 -0.575747 23.123900 40.985400 -0.000006 -0.000013 0.608761 5.317920 -73.129800 11.754300 -0.000000 0.000003 -0.000814 0.180353 -9.260990 -2.192510 6.469440 -0.000001 -173.812000 14.309600 -177.123000 -39.081100 -0.002282 -0.040193 0.043508 -0.174253 12.982800 -40.985400 0.000008 0.000006 1.554780 2.971480 -69.611200 -11.754300 -0.000006 -0.000006 -0.009183 0.265099 -5.804740
0.000000 0.000000 0.000000 0.000000 0.000000 -0.000000 -2.859210 92.559800 -0.413883 87.000300 4.075990 2.157370 15.735700 0.000005 -0.000001 86.861200 86.141800 -85.487700 8.984550 -0.406207 -0.000000 -0.053607 -0.516102 2.745090 16.377300 -0.000001 -0.000001 4.490750 1.503500 -2.098660 6.456720 -0.000001 -0.000000 -7.391670 0.428396 -1.338900 12.994200 -0.242716 4.980390 -93.594100 10.152300 -70.386700 5.348090 -0.000007 -0.000001 -73.377500 2.274640 -2.463220 24.328600 0.000019 0.000005 12.926900 21.707400 -31.824900 22.291600 -0.000001 0.000005 -9.567710 4.814790 11.033300 12.994500 -0.242716 -4.980390 87.338200 7.305570 -69.917600 -5.348130 -0.000001 -0.000004 -68.115900 25.412800 -4.054810 -24.328900 0.000322 -0.000009 3.793770 8.639820 -23.823100 -22.291500 -0.000108 -0.000004 -9.809520 5.270500 0.885797 -2.192480 -6.469440 -0.000000 -176.161000 3.570850 -3.621570 39.081100 -0.000007 -0.000012 0.222374 -0.525231 22.947400 40.985400 -0.000006 -0.000013 0.175301 5.532810 -72.722400 11.754300 -0.000000 0.000003 -0.000646 0.177871 -9.361830 -2.192510 6.469440 -0.000001 -173.889000 14.294300 -177.194000 -39.081100 -0.002282 -0.040193 0.040024 -0.160553 12.872600 -40.985400 0.000008 0.000006 1.392310 3.035340 -69.416700 -11.754300 -0.000006 -0.000006 -0.009036 0.263958 -5.851380
0.000000 0.000000 0.000000 0.000000 0.000000 -0.000000 -2.889750 92.613900 -0.617348 87.011300 4.034790 2.035280 15.735700 0.000005 -0.000001 87.253800 86.044600 -85.930800 8.984550 -0.406207 -0.000000 0.142514 -0.466906 2.644860 16.377300 -0.000001 -0.000001 4.173520 1.239770 -1.672200 6.456720 -0.000001 -0.000000 -8.539790 -0.066619 -0.729356 12.994200 -0.242716 4.980390 -93.649700 10.206300 -70.202500 5.348090 -0.000007 -0.000001 -73.356800 -2.603780 -2.020920 24.328600 0.000019 0.000005 13.395400 17.536100 -38.324100 22.291600 -0.000001 0.000005 -6.797380 4.753010 12.190700 12.994500 -0.242716 -4.980390 87.328300 7.210650 -69.606500 -5.348130 -0.000001 -0.000004 -67.173700 20.490000 -4.079940 -24.328900 0.000322 -0.000009 4.418160 8.361950 -27.988200 -22.291500 -0.000108 -0.000004 -10.779600 5.226140 2.055420 -2.192480 -6.469440 -0.000000 -176.088000 3.457820 -3.802420 39.081100 -0.000007 -0.000012 0.206069 -0.491186 22.760100 40.985400 -0.000006 -0.000013 -0.151453 5.753280 -72.370600 11.754300 -0.000000 0.000003 -0.000717 0.178924 -9.319070 -2.192510 6.469440 -0.000001 -173.864000 14.188700 -177.387000 -39.081100 -0.002282 -0.040193 0.034479 -0.138153 12.704100 -40.985400 0.000008 0.000006 1.037190 3.068760 -69.101900 -11.754300 -0.000006 -0.000006 -0.009059 0.264132 -5.844280
0.000000 0.000000 0.000000 0.000000 0.000000 -0.000000 -2.903450 92.666300 -0.879124 87.064600 3.980500 1.956710 15.735700 0.000005 -0.000001 88.083700 85.904000 -86.841900 8.984550 -0.406207 -0.000000 0.426429 -0.353364 2.483040 16.377300 -0.000001 -0.000001 3.697700 0.765672 -1.177060 6.456720 -0.000001 -0.000000 -10.079000 -0.874832 0.235145 12.994200 -0.242716 4.980390 -93.688000 10.226500 -70.046300 5.348090 -0.000007 -0.000001 -73.233300 -6.962130 -1.725780 24.328600 0.000019 0.000005 16.423000 15.621700 -47.583300 22.291600 -0.000001 0.000005 -2.902380 4.682730 13.460100 12.994500 -0.242716 -4.980390 87.352100 7.020190 -69.273600 -5.348130 -0.000001 -0.000004 -66.565900 14.140800 -3.634500 -24.328900 0.000322 -0.000009 3.972530 5.992320 -33.646000 -22.291500 -0.000108 -0.000004 -9.715760 5.177030 3.287210 -2.192480 -6.469440 -0.000000 -176.081000 3.375390 -4.000140 39.081100 -0.000007 -0.000012 0.189184 -0.454689 22.591100 40.985400 -0.000006 -0.000013 -0.483730 5.817190 -71.956100 11.754300 -0.000000 0.000003 -0.000549 0.176407 -9.421320 -2.192510 6.469440 -0.000001 -173.866000 14.126300 -177.605000 -39.081100 -0.002282 -0.040193 0.032590 -0.130862 12.601900 -40.985400 0.000008 0.000006 0.984506 3.088740 -68.893900 -11.754300 -0.000006 -0.000006 -0.009167 0.264975 -5.809810
